<svg width="25" height="20" viewBox="0 0 25 20" fill="none" xmlns="http://www.w3.org/2000/svg">
<path d="M12.2738 15.4367C9.3058 15.4367 7.0542 13.1851 7.0542 10.2171C7.0542 8.68188 7.77062 7.24904 8.89642 6.22559L10.2269 7.76077C9.71518 8.27249 8.99876 9.09126 8.99876 10.3194C8.99876 12.0593 10.4316 13.4921 12.1715 13.4921C13.2973 13.4921 14.4231 12.7757 15.0371 11.6499L16.8794 12.571C16.0606 14.3109 14.2184 15.4367 12.2738 15.4367Z" fill="#38415F"/>
<path d="M22.5087 19.1211C22.304 19.1211 21.997 19.0188 21.8946 18.9164L2.2443 2.54115C1.83492 2.13177 1.73258 1.5177 2.14196 1.10832C2.55134 0.698937 3.16541 0.596592 3.5748 1.00597L23.2251 17.3812C23.6345 17.7906 23.7368 18.4047 23.3275 18.8141C23.1228 19.0188 22.8157 19.1211 22.5087 19.1211Z" fill="#38415F"/>
<path d="M21.2805 14.925C21.0758 14.925 20.8711 14.8226 20.6664 14.7203C20.2571 14.4132 20.1547 13.6968 20.4617 13.2874C21.3829 12.0593 21.9969 10.8311 22.2016 10.3194C17.5961 0.187218 8.89671 3.46227 8.48733 3.66696C7.9756 3.87165 7.36153 3.66696 7.15684 3.05289C6.95215 2.54116 7.15684 1.92709 7.77091 1.7224C7.87326 1.7224 18.9266 -2.57611 24.2485 9.80769C24.3509 10.0124 24.3509 10.3194 24.2485 10.5241C24.2485 10.6264 23.6344 12.4687 22.0993 14.5156C21.8946 14.7203 21.5875 14.925 21.2805 14.925Z" fill="#38415F"/>
<path d="M11.8646 19.8375C10.8412 19.8375 9.81773 19.6328 8.79428 19.3258C3.06294 17.4836 0.5043 10.8311 0.401954 10.6264C0.299609 10.4217 0.299609 10.1147 0.401954 9.91002C2.14183 4.89509 5.0075 3.35991 5.10984 3.35991C5.62157 3.05288 6.23564 3.25757 6.54268 3.76929C6.84971 4.28102 6.64502 4.89509 6.1333 5.20213C6.03095 5.20213 3.98404 6.43027 2.55121 10.3194C3.16528 11.6499 5.41688 16.1531 9.5107 17.4836C12.274 18.4047 15.3444 17.6883 18.7218 15.4367C19.2335 15.1296 19.8476 15.232 20.1546 15.7437C20.4617 16.2554 20.3593 16.8695 19.8476 17.1765C16.9819 18.9164 14.3209 19.8375 11.8646 19.8375Z" fill="#38415F"/>
</svg>
