<svg width="25" height="20" viewBox="0 0 25 20" fill="none" xmlns="http://www.w3.org/2000/svg">
<path d="M12.1001 14.9185C9.37741 14.9185 7.25977 12.7 7.25977 10.0781C7.25977 7.35546 9.47825 5.23781 12.1001 5.23781C14.722 5.23781 16.9404 7.4563 16.9404 10.0781C17.0413 12.8008 14.8228 14.9185 12.1001 14.9185ZM12.1001 7.25462C10.4867 7.25462 9.27657 8.56554 9.27657 10.0781C9.27657 11.6916 10.5875 12.9017 12.1001 12.9017C13.6127 12.9017 14.9236 11.5907 14.9236 10.0781C15.0245 8.4647 13.7135 7.25462 12.1001 7.25462Z" fill="#38415F"/>
<path d="M12.1001 19.4563C7.46144 19.4563 3.02447 16.1286 0.402618 10.6832L0.100098 10.0781L0.402618 9.37227C2.82279 4.02773 7.3606 0.699997 12.1001 0.699997C16.8396 0.699997 21.3774 4.02773 23.7976 9.47311L24.1001 10.0781L23.7976 10.784C21.3774 16.0277 16.8396 19.4563 12.1001 19.4563ZM2.31858 10.0781C4.53707 14.616 8.26816 17.4395 12.1001 17.4395C15.932 17.4395 19.764 14.5151 21.8816 10.0781C19.764 5.54033 16.0329 2.7168 12.1001 2.7168C8.26816 2.7168 4.53707 5.54033 2.31858 10.0781Z" fill="#38415F"/>
</svg>
